<svg id="圖層_1" data-name="圖層 1" xmlns="http://www.w3.org/2000/svg" viewBox="0 0 40 40"><defs><style>.cls-1{fill:#4285f4;}.cls-1,.cls-2,.cls-3,.cls-4{fill-rule:evenodd;}.cls-2{fill:#34a853;}.cls-3{fill:#fbbc05;}.cls-4{fill:#ea4335;}</style></defs><path id="Shape" class="cls-1" d="M39.6,20.45a23.66,23.66,0,0,0-.36-4.09H20.4V24.1H31.16a9.19,9.19,0,0,1-4,6v5h6.47c3.78-3.48,6-8.6,6-14.7Z"/><path id="Shape-2" data-name="Shape" class="cls-2" d="M20.4,40a19.08,19.08,0,0,0,13.24-4.85l-6.47-5a12.06,12.06,0,0,1-18-6.34H2.53V29A20,20,0,0,0,20.4,40Z"/><path id="Shape-3" data-name="Shape" class="cls-3" d="M9.21,23.8a11.78,11.78,0,0,1,0-7.6V11H2.53a20,20,0,0,0,0,18L9.21,23.8Z"/><path id="Shape-4" data-name="Shape" class="cls-4" d="M20.4,8a10.79,10.79,0,0,1,7.65,3l5.73-5.74A19.2,19.2,0,0,0,20.4,0,20,20,0,0,0,2.53,11L9.21,16.2A11.92,11.92,0,0,1,20.4,8Z"/></svg>